<svg xmlns="http://www.w3.org/2000/svg" width="960" height="560" viewBox="0 0 960 560">
  <style>
    .panel { fill:#ffffff; stroke:#334155; stroke-width:2; rx:16; }
    .title { font:18px Arial, sans-serif; font-weight:bold; fill:#0f172a; }
    .text { font:14px Arial, sans-serif; fill:#0f172a; }
    .line { stroke:#0f766e; stroke-width:4; fill:none; }
    .grid { stroke:#cbd5e1; stroke-width:1; }
  </style>
  <rect x="20" y="20" width="920" height="520" rx="20" fill="#f8fafc" stroke="#cbd5e1" stroke-width="2" />
  <text x="40" y="58" class="title">Output Analysis Mockup</text>

  <rect x="40" y="90" width="420" height="420" class="panel" />
  <text x="60" y="122" class="text">Performance Metrics</text>
  <line x1="70" y1="450" x2="410" y2="200" class="line" />
  <polyline points="70,450 145,380 220,320 295,260 370,210 410,190" class="line" />
  <text x="70" y="480" class="text">Iterations →</text>
  <text x="60" y="140" class="text">Accuracy / Drift Trend</text>
  <text x="360" y="250" class="text">0.9</text>
  <text x="360" y="325" class="text">0.7</text>

  <rect x="500" y="90" width="420" height="420" class="panel" />
  <text x="520" y="122" class="text">Sample Output Log</text>
  <text x="520" y="160" class="text">2026-04-25T13:20:07.341Z | INFO  | IntentParserAgent</text>
  <text x="520" y="185" class="text">Parsed intent: 'Show orders' (0.92)</text>
  <text x="520" y="215" class="text">2026-04-25T13:20:07.387Z | INFO  | OntologyMapperAgent</text>
  <text x="520" y="240" class="text">Matched 'orders' → sales.order_table</text>
  <text x="520" y="270" class="text">2026-04-25T13:20:07.421Z | INFO  | ConstraintValidatorAgent</text>
  <text x="520" y="295" class="text">All business rules satisfied</text>
  <text x="520" y="325" class="text">2026-04-25T13:20:07.452Z | INFO  | ExecutionPlannerAgent</text>
  <text x="520" y="350" class="text">Generated plan with 3 joins</text>
  <text x="520" y="380" class="text">2026-04-25T13:20:07.498Z | INFO  | ResultVerifierAgent</text>
  <text x="520" y="405" class="text">Plausibility score 0.91, drift 0.12</text>
</svg>